<?xml version="1.0" encoding="UTF-8"?>
<svg version="1.1" xmlns="http://www.w3.org/2000/svg" width="200" height="200">
<path d="M0 0 C66 0 132 0 200 0 C200 66 200 132 200 200 C134 200 68 200 0 200 C0 134 0 68 0 0 Z " fill="#AD5C4C" transform="translate(0,0)"/>
<path d="M0 0 C2 2 2 2 2 5 C3.051875 4.690625 3.051875 4.690625 4.125 4.375 C7.60186072 3.92149643 9.77398123 4.72459723 13 6 C13 7.65 13 9.3 13 11 C14.11375 11.28875 15.2275 11.5775 16.375 11.875 C20 13 20 13 22 15 C21.9071875 16.36125 21.9071875 16.36125 21.8125 17.75 C21.67628733 21.25092198 21.67628733 21.25092198 24.625 23.9375 C25.800625 25.4534375 25.800625 25.4534375 27 27 C26.1875 30.625 26.1875 30.625 25 34 C25.89163577 36.11683841 25.89163577 36.11683841 27 38 C26.625 40.75 26.625 40.75 26 43 C24.68 43.33 23.36 43.66 22 44 C22.01160156 44.71027344 22.02320313 45.42054687 22.03515625 46.15234375 C22.04417969 47.07144531 22.05320312 47.99054688 22.0625 48.9375 C22.07410156 49.85402344 22.08570313 50.77054688 22.09765625 51.71484375 C22 54 22 54 21 55 C19.33382885 55.04063832 17.66611905 55.042721 16 55 C15.71125 56.11375 15.4225 57.2275 15.125 58.375 C14 62 14 62 12 64 C11.05125 63.95875 10.1025 63.9175 9.125 63.875 C5.89755144 63.65026182 5.89755144 63.65026182 4 66 C2 68 2 68 -1.0625 68.3125 C-4 68 -4 68 -7 67 C-7.928125 67.495 -7.928125 67.495 -8.875 68 C-11.61867229 69.2911399 -13.13937931 68.79461686 -16 68 C-16.33 66.68 -16.66 65.36 -17 64 C-17.71027344 64.01160156 -18.42054687 64.02320312 -19.15234375 64.03515625 C-20.07144531 64.04417969 -20.99054688 64.05320312 -21.9375 64.0625 C-22.85402344 64.07410156 -23.77054688 64.08570312 -24.71484375 64.09765625 C-27 64 -27 64 -28 63 C-28.04063832 61.33382885 -28.042721 59.66611905 -28 58 C-28.7425 57.896875 -29.485 57.79375 -30.25 57.6875 C-33.30108241 56.9247294 -34.85403077 56.30492991 -37 54 C-36.979375 53.05125 -36.95875 52.1025 -36.9375 51.125 C-36.64371889 47.76449215 -36.64371889 47.76449215 -39.5625 45.4375 C-40.366875 44.633125 -41.17125 43.82875 -42 43 C-41.86863344 40.175619 -41.25262369 38.50524739 -40 36 C-40.33 35.236875 -40.66 34.47375 -41 33.6875 C-42.14309247 30.61543898 -41.88573949 29.10008821 -41 26 C-40.01 25.67 -39.02 25.34 -38 25 C-38.04125 23.741875 -38.0825 22.48375 -38.125 21.1875 C-38.2390374 17.70935927 -38.05925681 17.08888522 -36 14 C-33.375 13.8125 -33.375 13.8125 -31 14 C-30.8453125 12.88625 -30.8453125 12.88625 -30.6875 11.75 C-29.9247294 8.69891759 -29.30492991 7.14596923 -27 5 C-25 5 -23 5 -21 5 C-20.34 4.34 -19.68 3.68 -19 3 C-17 1 -17 1 -13.75 0.75 C-12.8425 0.8325 -11.935 0.915 -11 1 C-11 1.66 -11 2.32 -11 3 C-10.113125 2.505 -9.22625 2.01 -8.3125 1.5 C-5.1098773 0.04975576 -3.43457444 -0.47702423 0 0 Z " fill="#F3816A" transform="translate(108,40)"/>
<path d="M0 0 C6.09300852 3.34875587 9.57769094 8.54557282 11.75 15.0625 C12.54335226 21.65642779 11.4389452 26.54722455 7.75 32.0625 C3.73053528 36.9751791 -1.14829585 40.2628898 -7.4140625 41.484375 C-13.78141019 41.88936531 -19.15199494 39.82119865 -24.25 36.0625 C-29.44660767 30.05589477 -31.65357261 24.59649607 -31.515625 16.6875 C-30.97213124 11.31650283 -29.02542042 7.71614068 -25.0859375 4.046875 C-17.19322532 -2.2775784 -9.58915221 -4.2215481 0 0 Z " fill="#F0D757" transform="translate(110.25,54.9375)"/>
<path d="M0 0 C2 2 2 2 2 5 C3.051875 4.690625 3.051875 4.690625 4.125 4.375 C7.60186072 3.92149643 9.77398123 4.72459723 13 6 C13 7.65 13 9.3 13 11 C14.11375 11.28875 15.2275 11.5775 16.375 11.875 C20 13 20 13 22 15 C21.9071875 16.36125 21.9071875 16.36125 21.8125 17.75 C21.67628733 21.25092198 21.67628733 21.25092198 24.625 23.9375 C25.800625 25.4534375 25.800625 25.4534375 27 27 C26.1875 30.625 26.1875 30.625 25 34 C25.89163577 36.11683841 25.89163577 36.11683841 27 38 C26.625 40.75 26.625 40.75 26 43 C24.68 43.33 23.36 43.66 22 44 C22.01160156 44.71027344 22.02320313 45.42054687 22.03515625 46.15234375 C22.04417969 47.07144531 22.05320312 47.99054688 22.0625 48.9375 C22.07410156 49.85402344 22.08570313 50.77054688 22.09765625 51.71484375 C22 54 22 54 21 55 C19.33382885 55.04063832 17.66611905 55.042721 16 55 C15.71125 56.11375 15.4225 57.2275 15.125 58.375 C14 62 14 62 12 64 C11.05125 63.95875 10.1025 63.9175 9.125 63.875 C5.89755144 63.65026182 5.89755144 63.65026182 4 66 C2 68 2 68 -1.0625 68.3125 C-4 68 -4 68 -7 67 C-7.928125 67.495 -7.928125 67.495 -8.875 68 C-11.61867229 69.2911399 -13.13937931 68.79461686 -16 68 C-16.33 66.68 -16.66 65.36 -17 64 C-17.71027344 64.01160156 -18.42054687 64.02320312 -19.15234375 64.03515625 C-20.07144531 64.04417969 -20.99054688 64.05320312 -21.9375 64.0625 C-22.85402344 64.07410156 -23.77054688 64.08570312 -24.71484375 64.09765625 C-27 64 -27 64 -28 63 C-28.04063832 61.33382885 -28.042721 59.66611905 -28 58 C-28.7425 57.896875 -29.485 57.79375 -30.25 57.6875 C-33.30108241 56.9247294 -34.85403077 56.30492991 -37 54 C-36.979375 53.05125 -36.95875 52.1025 -36.9375 51.125 C-36.64371889 47.76449215 -36.64371889 47.76449215 -39.5625 45.4375 C-40.366875 44.633125 -41.17125 43.82875 -42 43 C-41.86863344 40.175619 -41.25262369 38.50524739 -40 36 C-40.33 35.236875 -40.66 34.47375 -41 33.6875 C-42.14309247 30.61543898 -41.88573949 29.10008821 -41 26 C-40.01 25.67 -39.02 25.34 -38 25 C-38.04125 23.741875 -38.0825 22.48375 -38.125 21.1875 C-38.2390374 17.70935927 -38.05925681 17.08888522 -36 14 C-33.375 13.8125 -33.375 13.8125 -31 14 C-30.8453125 12.88625 -30.8453125 12.88625 -30.6875 11.75 C-29.9247294 8.69891759 -29.30492991 7.14596923 -27 5 C-25 5 -23 5 -21 5 C-20.34 4.34 -19.68 3.68 -19 3 C-17 1 -17 1 -13.75 0.75 C-12.8425 0.8325 -11.935 0.915 -11 1 C-11 1.66 -11 2.32 -11 3 C-10.113125 2.505 -9.22625 2.01 -8.3125 1.5 C-5.1098773 0.04975576 -3.43457444 -0.47702423 0 0 Z M-15 4 C-15.515625 4.639375 -16.03125 5.27875 -16.5625 5.9375 C-19 8 -19 8 -22.5625 8.3125 C-24.2640625 8.6528125 -24.2640625 8.6528125 -26 9 C-27.06902939 11.30252483 -28.07175817 13.6372026 -29 16 C-31.6875 16.9375 -31.6875 16.9375 -34 17 C-34.05607422 17.93972656 -34.05607422 17.93972656 -34.11328125 18.8984375 C-34.17902344 19.71570312 -34.24476562 20.53296875 -34.3125 21.375 C-34.39951172 22.59316406 -34.39951172 22.59316406 -34.48828125 23.8359375 C-35 26 -35 26 -38 28 C-38.33343551 30.54207971 -38.33343551 30.54207971 -38 33 C-37.67 33.33 -37.34 33.66 -37 34 C-36.8386942 37.06481021 -37.01849759 39.05549278 -38 42 C-37.360625 42.515625 -36.72125 43.03125 -36.0625 43.5625 C-34 46 -34 46 -33.6875 49.5625 C-33.3471875 51.2640625 -33.3471875 51.2640625 -33 53 C-30.69747517 54.06902939 -28.3627974 55.07175817 -26 56 C-25.0625 58.6875 -25.0625 58.6875 -25 61 C-24.37351562 61.03738281 -23.74703125 61.07476562 -23.1015625 61.11328125 C-22.28429687 61.17902344 -21.46703125 61.24476562 -20.625 61.3125 C-19.40683594 61.39951172 -19.40683594 61.39951172 -18.1640625 61.48828125 C-16 62 -16 62 -14 65 C-12.87851563 64.89171875 -12.87851563 64.89171875 -11.734375 64.78125 C-10.74953125 64.6884375 -9.7646875 64.595625 -8.75 64.5 C-7.77546875 64.4071875 -6.8009375 64.314375 -5.796875 64.21875 C-3.53697847 64.04199832 -1.26679807 64 1 64 C1.61875 63.34 2.2375 62.68 2.875 62 C5 60 5 60 8.25 59.75 C9.1575 59.8325 10.065 59.915 11 60 C11.391875 58.865625 11.78375 57.73125 12.1875 56.5625 C12.785625 55.386875 13.38375 54.21125 14 53 C16.475 52.505 16.475 52.505 19 52 C19.33 48.37 19.66 44.74 20 41 C20.99 41 21.98 41 23 41 C22.89171875 39.87851563 22.89171875 39.87851563 22.78125 38.734375 C22.64203125 37.25710937 22.64203125 37.25710937 22.5 35.75 C22.4071875 34.77546875 22.314375 33.8009375 22.21875 32.796875 C22.04199832 30.53697847 22 28.26679807 22 26 C21.34 25.38125 20.68 24.7625 20 24.125 C18 22 18 22 17.75 18.75 C17.8325 17.8425 17.915 16.935 18 16 C16.865625 15.608125 15.73125 15.21625 14.5625 14.8125 C11 13 11 13 10.0625 10.3125 C10.041875 9.549375 10.02125 8.78625 10 8 C9.37351563 7.96261719 8.74703125 7.92523438 8.1015625 7.88671875 C7.28429687 7.82097656 6.46703125 7.75523438 5.625 7.6875 C4.81289062 7.62949219 4.00078125 7.57148437 3.1640625 7.51171875 C1 7 1 7 -1 4 C-1.75925781 4.08378906 -2.51851562 4.16757812 -3.30078125 4.25390625 C-4.29464844 4.35574219 -5.28851563 4.45757812 -6.3125 4.5625 C-7.29863281 4.66691406 -8.28476563 4.77132812 -9.30078125 4.87890625 C-12 5 -12 5 -15 4 Z " fill="#120908" transform="translate(108,40)"/>
<path d="M0 0 C7.46219842 6.99010015 13.83419133 15.96682476 14.99609375 26.39453125 C15 28.875 15 28.875 14.6875 32.625 C13.2025 32.13 13.2025 32.13 11.6875 31.625 C10.94921875 29.03515625 10.94921875 29.03515625 10.375 25.6875 C8.45587608 16.48580583 3.78422431 7.55790537 -3.79296875 1.7109375 C-15.98971509 -5.99782858 -28.01118269 -8.91995313 -42.3828125 -5.68359375 C-44.85151067 -4.75879929 -47.03300379 -3.69579112 -49.3125 -2.375 C-50.08851562 -1.95089844 -50.86453125 -1.52679688 -51.6640625 -1.08984375 C-60.29691504 4.09275501 -67.05562253 12.73110042 -69.84521484 22.48828125 C-71.8172024 31.50543647 -71.56427938 43.37815245 -67.3125 51.625 C-66.89871094 52.45257813 -66.48492187 53.28015625 -66.05859375 54.1328125 C-59.92448674 65.33131848 -51.23645977 70.65034674 -39.3125 74.625 C-39.3125 75.615 -39.3125 76.605 -39.3125 77.625 C-50.03955029 76.92540976 -57.76135699 71.22163172 -64.890625 63.54296875 C-68.21594158 59.53649861 -70.41175566 55.44680165 -72.3125 50.625 C-72.66183594 49.82835937 -73.01117188 49.03171875 -73.37109375 48.2109375 C-77.3534172 37.27194112 -76.15772433 25.02798165 -71.3125 14.625 C-64.41454401 2.70724435 -55.31377918 -5.9286824 -42 -9.796875 C-26.14558511 -13.20741774 -12.51296786 -10.2978662 0 0 Z " fill="#0D0706" transform="translate(130.3125,40.375)"/>
<path d="M0 0 C2.64 0 5.28 0 8 0 C8 10.23 8 20.46 8 31 C8.66 31.33 9.32 31.66 10 32 C7.36 32 4.72 32 2 32 C1.67 31.34 1.34 30.68 1 30 C0.34 30.66 -0.32 31.32 -1 32 C-4.38350489 32.5689079 -7.61391382 32.53772752 -11 32 C-13.82424288 29.80977082 -15.41508603 28.16982793 -17 25 C-17.39771327 20.22744077 -17.47453429 17.91517328 -15.25 13.625 C-12.02702703 9.86486486 -12.02702703 9.86486486 -9 9 C-4.59977384 8.68569813 -1.83324008 8.88163048 2 11 C1.85892253 9.54119891 1.71197585 8.08296449 1.5625 6.625 C1.48128906 5.81289062 1.40007812 5.00078125 1.31640625 4.1640625 C1.10909886 1.95727195 1.10909886 1.95727195 0 0 Z " fill="#FAF5F4" transform="translate(95,136)"/>
<path d="M0 0 C2.64 0 5.28 0 8 0 C8 10.23 8 20.46 8 31 C8.66 31.33 9.32 31.66 10 32 C7.36 32 4.72 32 2 32 C1.67 31.34 1.34 30.68 1 30 C0.01 30.66 -0.98 31.32 -2 32 C-5.06526351 32.54531842 -7.93408329 32.54325893 -11 32 C-13.75569447 29.81840855 -15.43588747 28.12822506 -17 25 C-17.34717992 19.70550628 -17.52421718 16.25336556 -14 12 C-10.05923481 8.8254947 -6.98245604 8.54704945 -2 9 C-0.68 9.66 0.64 10.32 2 11 C2 7.7 2 4.4 2 1 C1.34 0.67 0.68 0.34 0 0 Z " fill="#FAF6F5" transform="translate(125,136)"/>
<path d="M0 0 C0.99 0 1.98 0 3 0 C11.95700635 16.6207551 14.64230831 31.74337657 9.25390625 50.3046875 C4.8186912 63.37544588 -5.10070707 74.18305813 -17 81 C-30.27493897 87.53561573 -45.63738257 89.50300485 -60 85.3125 C-67.85582925 82.52716229 -74.99940906 78.84672963 -81 73 C-81 72.01 -81 71.02 -81 70 C-77.50796107 71.28041427 -74.65436405 72.7885107 -71.625 74.9375 C-60.55582906 82.444809 -49.19542282 84.0727986 -36 83 C-26.82261103 81.18105804 -16.54486247 77.55299282 -9.81640625 70.8125 C-8 69 -8 69 -6 69 C-5.72800781 68.41089844 -5.45601563 67.82179688 -5.17578125 67.21484375 C-4.02672347 65.05033955 -2.7630779 63.42908174 -1.1875 61.5625 C7.43514379 50.29811486 8.78460177 36.7091328 8 23 C6.86765569 16.50016537 4.12311131 10.88996562 0.98828125 5.12890625 C0 3 0 3 0 0 Z " fill="#0B0605" transform="translate(144,43)"/>
<path d="M0 0 C0.83926025 0.00563965 1.67852051 0.0112793 2.54321289 0.01708984 C13.67737052 0.23538547 21.86308599 4.12962813 31.625 9.3125 C31.625 10.3025 31.625 11.2925 31.625 12.3125 C27.44238855 11.78967357 24.2872915 10.20185853 20.6015625 8.296875 C9.73148246 2.88331735 -4.16013897 2.69058207 -15.62109375 6.27734375 C-31.41643779 12.21460073 -40.57815551 20.91870221 -48.1875 35.875 C-53.01948261 49.86231807 -52.40658496 63.41428056 -47.375 77.3125 C-45.19083418 81.73655016 -42.875605 85.811895 -39.375 89.3125 C-39.75 91.4375 -39.75 91.4375 -40.375 93.3125 C-48.60742812 87.42815275 -52.8720209 77.3264888 -54.94140625 67.609375 C-56.98068428 52.10351321 -55.27467814 37.53598691 -46.375 24.3125 C-34.59662668 9.18472109 -19.44713566 -0.13710338 0 0 Z " fill="#0B0605" transform="translate(100.375,18.6875)"/>
<path d="M0 0 C6.86875676 3.91397857 11.33958251 9.3194417 13.625 16.9375 C14.74250566 24.99595752 13.27901692 31.25541021 8.625 37.9375 C4.08203688 43.05238009 -1.2960558 46.48115403 -8.203125 47.25390625 C-17.14786112 47.60225653 -22.65972864 45.66318851 -29.1875 39.625 C-35.10257634 33.21024826 -35.95440797 27.66190231 -35.71875 19.08984375 C-34.861007 11.22395053 -30.42321429 5.80180851 -24.375 0.9375 C-16.89231446 -3.61079905 -7.8835467 -3.60288786 0 0 Z M-28.3125 8.9375 C-32.3632838 14.82954916 -33.34215534 19.84845711 -32.375 26.9375 C-30.22429806 34.04734475 -26.77195138 38.07722041 -20.4609375 41.87890625 C-15.78140747 44.25372393 -11.52027656 44.53792125 -6.375 43.9375 C0.48278576 41.68824406 5.37164228 37.44949405 8.9375 31.1875 C11.42977427 25.73309647 11.60971272 21.06680341 9.8125 15.35546875 C6.94941954 8.72465394 3.01872439 5.18225526 -3.375 1.9375 C-12.90130584 -1.23793528 -21.6947202 1.46830993 -28.3125 8.9375 Z " fill="#0F0A06" transform="translate(111.375,52.0625)"/>
<path d="M0 0 C1.2065625 0.0309375 1.2065625 0.0309375 2.4375 0.0625 C2.4375 0.7225 2.4375 1.3825 2.4375 2.0625 C3.200625 2.18625 3.96375 2.31 4.75 2.4375 C7.4375 3.0625 7.4375 3.0625 10.4375 5.0625 C13.11116737 5.41709768 13.11116737 5.41709768 16 5.375 C16.97066406 5.39175781 17.94132812 5.40851563 18.94140625 5.42578125 C20.17697266 5.24595703 20.17697266 5.24595703 21.4375 5.0625 C22.0975 4.0725 22.7575 3.0825 23.4375 2.0625 C27.45860999 0.27534 30.22221829 -0.3425939 34.4375 1.0625 C36.4375 3.0625 36.4375 3.0625 36.75 6.3125 C36.41036783 10.38808609 35.71841437 12.68045455 33.4375 16.0625 C29.47394938 18.55387468 24.99529903 18.7310859 20.4375 18.0625 C15.16756849 16.35571083 10.4459068 13.94160336 6.4375 10.0625 C6.4375 9.4025 6.4375 8.7425 6.4375 8.0625 C5.15875 8.083125 3.88 8.10375 2.5625 8.125 C-1.3125 8.1875 -1.3125 8.1875 -3.5625 7.0625 C-3.60504356 5.06295254 -3.60330783 3.06208364 -3.5625 1.0625 C-2.5625 0.0625 -2.5625 0.0625 0 0 Z " fill="#FCE25C" transform="translate(84.5625,70.9375)"/>
<path d="M0 0 C7.12329432 0.83583313 11.06430621 1.5447595 16 7 C22.46550667 11.12043561 28.48973788 11.50536343 36 11 C36 11.66 36 12.32 36 13 C34.35546875 14.25390625 34.35546875 14.25390625 32.1875 15.5625 C31.12595703 16.21412109 31.12595703 16.21412109 30.04296875 16.87890625 C25.43439606 19.40789356 21.12759347 19.67053145 16 19 C8.99697492 16.8444142 4.86651204 13.40933381 0.9609375 7.28125 C-0.13054307 4.69009288 -0.18627163 2.78427066 0 0 Z " fill="#F9D544" transform="translate(80,77)"/>
<path d="M0 0 C4.0226217 1.56435288 5.59149109 2.38723663 8 6 C8 7.32 8 8.64 8 10 C2.06 10 -3.88 10 -10 10 C-9.71125 11.44375 -9.4225 12.8875 -9.125 14.375 C-8.96257812 15.18710938 -8.80015625 15.99921875 -8.6328125 16.8359375 C-8.13341068 19.18673923 -8.13341068 19.18673923 -6 21 C-3.54258463 21.50014953 -3.54258463 21.50014953 -1 21 C0.84315671 19.0995533 0.84315671 19.0995533 2 17 C3.65 17.33 5.3 17.66 7 18 C6 21 6 21 4.2734375 22.16015625 C-0.05949293 23.76080924 -4.4670677 23.65504802 -9 23 C-12.6717213 21.14990787 -14.68195684 18.95412948 -16 15 C-16.46995626 11.50889633 -16.67927049 9.05757191 -14.73046875 6.0234375 C-10.23317633 0.70547128 -7.12648101 -0.75503609 0 0 Z " fill="#FBF8F7" transform="translate(168,145)"/>
<path d="M0 0 C3.14344435 1.74635797 5.46862726 3.46862726 8 6 C8 7.32 8 8.64 8 10 C2.06 10 -3.88 10 -10 10 C-9.34 13.63 -8.68 17.26 -8 21 C-2.86274018 21.48489837 -2.86274018 21.48489837 1.4375 19 C1.953125 18.34 2.46875 17.68 3 17 C3.99 17.33 4.98 17.66 6 18 C4.25 21.875 4.25 21.875 2 23 C-2.79933826 23.63224815 -7.82018442 24.27823744 -12.125 21.75390625 C-15.15979259 18.5950957 -16.37615899 15.74435535 -16.625 11.375 C-16.32519572 7.1848783 -15.14951199 4.88705266 -12 2 C-8.4728721 -0.64534592 -4.23803379 -0.68460546 0 0 Z " fill="#FAF5F4" transform="translate(67,145)"/>
<path d="M0 0 C2.54232342 -0.08152344 5.08199202 -0.14073716 7.625 -0.1875 C8.33785156 -0.21263672 9.05070312 -0.23777344 9.78515625 -0.26367188 C14.57479341 -0.32958431 17.89118299 0.26078866 22 3 C22.875 6.1875 22.875 6.1875 23 9 C18.25 13 18.25 13 16 13 C18.31537955 16.72114571 20.28579473 19.61229661 24 22 C23.67 22.33 23.34 22.66 23 23 C19.45868435 23 16.94420806 22.81899786 14.203125 20.44140625 C10 15.62782738 10 15.62782738 10 13 C10.804375 12.566875 11.60875 12.13375 12.4375 11.6875 C15.21166192 10.23572899 15.21166192 10.23572899 15.875 7.4375 C16.20100587 4.99164961 16.20100587 4.99164961 15 3 C12.67843403 2.59270772 10.3431213 2.25561323 8 2 C8.11358476 4.95918198 8.24033086 7.91676783 8.375 10.875 C8.4059375 11.71675781 8.436875 12.55851563 8.46875 13.42578125 C8.50742187 14.23144531 8.54609375 15.03710938 8.5859375 15.8671875 C8.6173584 16.61081543 8.6487793 17.35444336 8.68115234 18.12060547 C8.85419551 20.24010974 8.85419551 20.24010974 11 22 C7.37 22 3.74 22 0 22 C0.66 21.67 1.32 21.34 2 21 C2 14.4 2 7.8 2 1 C1.34 0.67 0.68 0.34 0 0 Z " fill="#FCF9F9" transform="translate(24,146)"/>
<path d="M0 0 C3.0625 0.625 3.0625 0.625 5.4375 2.5625 C7.59129516 6.62157549 7.75722401 10.10929395 7.0625 14.625 C5.53595133 18.38827434 5.53595133 18.38827434 3.0625 19.625 C1.06289988 19.664992 -0.93797242 19.66846799 -2.9375 19.625 C-5.95758666 14.59152223 -6.48256579 11.34819081 -5.9375 5.625 C-4.52011775 1.84531399 -3.98914951 0.84875521 0 0 Z " fill="#B16455" transform="translate(119.9375,146.375)"/>
<path d="M0 0 C3.0625 0.625 3.0625 0.625 5.4375 2.5625 C7.6329489 6.70007677 7.86629955 10.03422731 7.0625 14.625 C5.5 17.75 5.5 17.75 3.0625 19.625 C-0.5625 19.6875 -0.5625 19.6875 -3.9375 18.625 C-6.64730135 14.55585568 -6.46592748 10.33890861 -5.9375 5.625 C-4.53194498 1.79876689 -4.01724995 0.85473403 0 0 Z " fill="#B16354" transform="translate(89.9375,146.375)"/>
<path d="M0 0 C0.66 0 1.32 0 2 0 C2.62009499 11.36840814 -1.78560167 20.26625483 -8.67578125 29.1640625 C-14.24522828 35.34173608 -21.32878705 38.97686189 -29 42 C-30.32 42 -31.64 42 -33 42 C-33 41.01 -33 40.02 -33 39 C-32.23816406 38.72027344 -31.47632812 38.44054687 -30.69140625 38.15234375 C-18.81855021 33.54253323 -10.54161365 27.77412978 -5 16 C-3.64538748 12.0558908 -2.66627014 8.05335879 -1.7265625 3.9921875 C-1 1 -1 1 0 0 Z " fill="#0C0605" transform="translate(143,76)"/>
<path d="M0 0 C3.63 0 7.26 0 11 0 C10.01 0.495 10.01 0.495 9 1 C9 7.6 9 14.2 9 21 C9.66 21.33 10.32 21.66 11 22 C7.37 22 3.74 22 0 22 C0.66 21.67 1.32 21.34 2 21 C2 14.4 2 7.8 2 1 C1.34 0.67 0.68 0.34 0 0 Z " fill="#F5ECEA" transform="translate(138,146)"/>
<path d="M0 0 C2.4375 1.75 2.4375 1.75 4 4 C4 6.5625 4 6.5625 3 9 C-0.20689655 12 -0.20689655 12 -3 12 C-0.68462045 15.72114571 1.28579473 18.61229661 5 21 C4.67 21.33 4.34 21.66 4 22 C0.45868435 22 -2.05579194 21.81899786 -4.796875 19.44140625 C-9 14.62782738 -9 14.62782738 -9 12 C-8.195625 11.566875 -7.39125 11.13375 -6.5625 10.6875 C-3.78833808 9.23572899 -3.78833808 9.23572899 -3.125 6.4375 C-2.79899413 3.99164961 -2.79899413 3.99164961 -4 2 C-7.02934491 1.34227572 -7.02934491 1.34227572 -10 1 C-6.4215878 -1.33973105 -4.05713232 -1.18333026 0 0 Z " fill="#F8F1F0" transform="translate(43,147)"/>
<path d="M0 0 C1.8125 1.0625 1.8125 1.0625 3 3 C3.3125 6.5625 3.3125 6.5625 3 10 C1 12 1 12 -1.9375 12.3125 C-5 12 -5 12 -6.875 10.875 C-8.52854531 8.11909116 -8.39365568 6.14924548 -8 3 C-5.90534242 -0.30735407 -3.75951639 -0.56392746 0 0 Z " fill="#0C090A" transform="translate(141,30)"/>
<path d="M0 0 C2.9375 0.8125 2.9375 0.8125 4.9375 2.8125 C5.26704432 5.91021665 5.39084601 7.98581023 3.875 10.75 C0.75607551 12.46037795 -1.71807801 11.61763863 -5.0625 10.8125 C-6.46185013 8.01379973 -6.31515405 5.90751208 -6.0625 2.8125 C-4.31169972 -0.20276715 -3.50175349 -0.21439307 0 0 Z " fill="#070403" transform="translate(101.0625,112.1875)"/>
<path d="M0 0 C2.31 0 4.62 0 7 0 C9 3 9 3 8.8125 5.5 C7.94139884 8.18031126 7.26201382 9.3469899 5 11 C4.01 11 3.02 11 2 11 C2.33 11.99 2.66 12.98 3 14 C2.34 14 1.68 14 1 14 C0.67 15.32 0.34 16.64 0 18 C0 12.06 0 6.12 0 0 Z " fill="#B56B5C" transform="translate(32,148)"/>
<path d="M0 0 C1.26026798 2.52053595 0.91874445 3.8542098 0.5625 6.625 C0.46066406 7.44226563 0.35882813 8.25953125 0.25390625 9.1015625 C0.17011719 9.72804688 0.08632812 10.35453125 0 11 C1.32 10.67 2.64 10.34 4 10 C4.33 11.65 4.66 13.3 5 15 C3.68 15 2.36 15 1 15 C1 14.34 1 13.68 1 13 C-0.65 13.33 -2.3 13.66 -4 14 C-4.66 16.31 -5.32 18.62 -6 21 C-6.33 21 -6.66 21 -7 21 C-7.51269953 14.05007306 -7.02673384 8.83135703 -3 3 C-2.02590007 1.97475401 -1.03199801 0.96694369 0 0 Z " fill="#EFCD46" transform="translate(86,58)"/>
<path d="M0 0 C3.0625 0.375 3.0625 0.375 4.9375 2.1875 C6.0625 4.375 6.0625 4.375 6.0625 7.375 C2.1025 7.375 -1.8575 7.375 -5.9375 7.375 C-4.5794214 0.58460699 -4.5794214 0.58460699 0 0 Z " fill="#B56C5D" transform="translate(62.9375,146.625)"/>
<path d="M0 0 C3.125 0.25 3.125 0.25 5 1.5 C6.125 3.25 6.125 3.25 6.125 7.25 C2.495 7.25 -1.135 7.25 -4.875 7.25 C-3.84500937 0.33434864 -3.84500937 0.33434864 0 0 Z " fill="#B36859" transform="translate(163.875,146.75)"/>
<path d="M0 0 C1.2065625 0.0309375 1.2065625 0.0309375 2.4375 0.0625 C2.4375 0.7225 2.4375 1.3825 2.4375 2.0625 C3.7575 2.0625 5.0775 2.0625 6.4375 2.0625 C5.5625 6.9375 5.5625 6.9375 4.4375 8.0625 C-1.09191176 8.29779412 -1.09191176 8.29779412 -3.5625 7.0625 C-3.60504356 5.06295254 -3.60330783 3.06208364 -3.5625 1.0625 C-2.5625 0.0625 -2.5625 0.0625 0 0 Z " fill="#F0F2F3" transform="translate(84.5625,70.9375)"/>
<path d="M0 0 C5.60726423 -0.29003091 9.1241995 -0.13444318 14 3 C16 6 16 6 16 10 C13.69 10 11.38 10 9 10 C9.04125 9.21625 9.0825 8.4325 9.125 7.625 C9.28728734 4.83883881 9.28728734 4.83883881 7 3 C4.68234271 2.28072705 2.34904126 1.6090107 0 1 C0 0.67 0 0.34 0 0 Z " fill="#F5ECEB" transform="translate(160,145)"/>
<path d="M0 0 C0.625 2.375 0.625 2.375 1 5 C-1 7 -1 7 -4 7.25 C-7 7 -7 7 -9 5 C-9 3.68 -9 2.36 -9 1 C-5.64919071 -1.10976881 -3.77897651 -1.0497157 0 0 Z " fill="#EFF2F7" transform="translate(119,72)"/>
<path d="M0 0 C0.99 0 1.98 0 3 0 C3 0.66 3 1.32 3 2 C3.66 2 4.32 2 5 2 C5 1.34 5 0.68 5 0 C5.99 0 6.98 0 8 0 C8 0.66 8 1.32 8 2 C8.66 2 9.32 2 10 2 C10 1.34 10 0.68 10 0 C10.99 0 11.98 0 13 0 C12.67 1.65 12.34 3.3 12 5 C8.37 5 4.74 5 1 5 C0.67 3.35 0.34 1.7 0 0 Z " fill="#0E0D05" transform="translate(94,72)"/>
<path d="M0 0 C2.125 0.375 2.125 0.375 4 1 C4.625 2.875 4.625 2.875 5 5 C4.34 5.66 3.68 6.32 3 7 C0.875 6.625 0.875 6.625 -1 6 C-1.625 4.125 -1.625 4.125 -2 2 C-1.34 1.34 -0.68 0.68 0 0 Z " fill="#F2E5E2" transform="translate(142,137)"/>
<path d="M0 0 C1.65 0.33 3.3 0.66 5 1 C4 4 4 4 2.125 5.1875 C0 6 0 6 -3 6 C-2 4 -1 2 0 0 Z " fill="#F4EAE8" transform="translate(170,162)"/>
<path d="M0 0 C1.98 0.495 1.98 0.495 4 1 C3.67 2.65 3.34 4.3 3 6 C1.68 5.67 0.36 5.34 -1 5 C-0.67 3.35 -0.34 1.7 0 0 Z " fill="#ADA598" transform="translate(99,115)"/>
<path d="M0 0 C1.32 0 2.64 0 4 0 C3.67 1.65 3.34 3.3 3 5 C1.68 4.67 0.36 4.34 -1 4 C-0.67 2.68 -0.34 1.36 0 0 Z " fill="#7DB9ED" transform="translate(137,34)"/>
<path d="M0 0 C0.99 0.33 1.98 0.66 3 1 C3 2.32 3 3.64 3 5 C1.68 5 0.36 5 -1 5 C-0.67 3.35 -0.34 1.7 0 0 Z " fill="#332F1B" transform="translate(88,68)"/>
</svg>
