<svg id="svg" version="1.1" xmlns="http://www.w3.org/2000/svg" xmlns:xlink="http://www.w3.org/1999/xlink" width="400" height="300" viewBox="0, 0, 400,300"><g id="svgg"><path id="path0" d="M160.600 91.614 C 156.577 91.800,144.890 92.508,142.150 92.731 L 140.600 92.858 140.600 118.029 L 140.600 143.200 150.898 143.200 L 161.195 143.200 161.248 135.963 L 161.300 128.726 165.691 135.963 L 170.083 143.200 182.558 143.200 L 195.033 143.200 193.753 141.550 C 189.545 136.126,181.375 125.361,181.432 125.316 C 181.469 125.286,182.074 124.877,182.775 124.406 C 195.916 115.591,193.426 97.421,178.434 92.719 C 174.664 91.537,169.372 91.209,160.600 91.614 M170.939 104.791 C 171.818 105.327,172.177 105.944,172.443 107.377 C 173.301 111.991,169.580 116.178,162.050 119.070 L 161.200 119.397 161.200 113.219 L 161.200 107.042 163.050 106.288 C 168.025 104.259,169.582 103.964,170.939 104.791 " stroke="none" fill="#f36304" fill-rule="evenodd"></path><path id="path1" d="M163.500 52.213 C 138.592 53.521,116.430 68.314,105.598 90.864 C 91.105 121.034,100.877 157.682,128.441 176.535 C 130.119 177.682,239.648 242.115,243.700 244.338 C 250.938 248.310,263.633 248.933,273.100 245.782 C 297.286 237.733,308.329 208.902,295.593 187.058 C 293.904 184.161,222.520 80.382,220.302 77.600 C 206.747 60.593,185.424 51.063,163.500 52.213 M175.034 91.880 C 192.635 95.094,197.293 114.666,182.775 124.406 C 182.074 124.877,181.469 125.286,181.432 125.316 C 181.375 125.361,189.545 136.126,193.753 141.550 L 195.033 143.200 182.558 143.200 L 170.083 143.200 165.691 135.963 L 161.300 128.726 161.248 135.963 L 161.195 143.200 150.898 143.200 L 140.600 143.200 140.600 118.029 L 140.600 92.858 142.150 92.731 C 144.890 92.508,156.577 91.800,160.600 91.614 C 166.067 91.362,172.883 91.487,175.034 91.880 M166.400 104.978 C 165.575 105.283,164.067 105.873,163.050 106.288 L 161.200 107.042 161.200 113.219 L 161.200 119.397 162.050 119.070 C 169.580 116.178,173.301 111.991,172.443 107.377 C 171.902 104.466,169.914 103.677,166.400 104.978 " stroke="none" fill="#04444c" fill-rule="evenodd"></path><path id="path2" d="M171.050 52.138 C 171.243 52.188,171.558 52.188,171.750 52.138 C 171.942 52.088,171.785 52.046,171.400 52.046 C 171.015 52.046,170.858 52.088,171.050 52.138 M122.087 68.850 L 121.500 69.500 122.150 68.913 C 122.508 68.590,122.800 68.297,122.800 68.263 C 122.800 68.108,122.635 68.244,122.087 68.850 M213.392 70.050 C 214.220 70.933,214.400 71.092,214.400 70.942 C 214.400 70.910,213.972 70.482,213.450 69.992 L 212.500 69.100 213.392 70.050 M118.700 72.000 C 117.383 73.320,116.351 74.400,116.406 74.400 C 116.461 74.400,117.583 73.320,118.900 72.000 C 120.217 70.680,121.249 69.600,121.194 69.600 C 121.139 69.600,120.017 70.680,118.700 72.000 M217.100 73.800 C 217.642 74.350,218.130 74.800,218.185 74.800 C 218.240 74.800,217.842 74.350,217.300 73.800 C 216.758 73.250,216.270 72.800,216.215 72.800 C 216.160 72.800,216.558 73.250,217.100 73.800 M115.487 75.450 L 114.900 76.100 115.550 75.513 C 115.908 75.190,116.200 74.897,116.200 74.863 C 116.200 74.708,116.035 74.844,115.487 75.450 M98.846 116.000 C 98.846 116.385,98.888 116.543,98.938 116.350 C 98.988 116.158,98.988 115.843,98.938 115.650 C 98.888 115.458,98.846 115.615,98.846 116.000 M116.592 166.450 C 117.082 166.972,117.510 167.400,117.542 167.400 C 117.692 167.400,117.533 167.220,116.650 166.392 L 115.700 165.500 116.592 166.450 M120.700 170.600 C 121.242 171.150,121.730 171.600,121.785 171.600 C 121.840 171.600,121.442 171.150,120.900 170.600 C 120.358 170.050,119.870 169.600,119.815 169.600 C 119.760 169.600,120.158 170.050,120.700 170.600 M288.993 236.150 L 287.900 237.300 289.050 236.207 C 289.683 235.606,290.200 235.088,290.200 235.057 C 290.200 234.908,290.009 235.082,288.993 236.150 " stroke="none" fill="#cfdbdc" fill-rule="evenodd"></path><path id="path3" d="M164.750 52.141 C 164.998 52.189,165.403 52.189,165.650 52.141 C 165.898 52.093,165.695 52.054,165.200 52.054 C 164.705 52.054,164.503 52.093,164.750 52.141 M167.950 52.145 C 168.308 52.189,168.893 52.189,169.250 52.145 C 169.608 52.100,169.315 52.064,168.600 52.064 C 167.885 52.064,167.593 52.100,167.950 52.145 M98.854 118.200 C 98.854 118.695,98.893 118.897,98.941 118.650 C 98.989 118.403,98.989 117.998,98.941 117.750 C 98.893 117.503,98.854 117.705,98.854 118.200 M98.846 122.600 C 98.846 122.985,98.888 123.142,98.938 122.950 C 98.988 122.758,98.988 122.442,98.938 122.250 C 98.888 122.058,98.846 122.215,98.846 122.600 M288.892 236.050 L 287.900 237.100 288.950 236.108 C 289.528 235.562,290.000 235.089,290.000 235.058 C 290.000 234.908,289.815 235.074,288.892 236.050 M258.350 247.941 C 258.598 247.989,259.002 247.989,259.250 247.941 C 259.498 247.893,259.295 247.854,258.800 247.854 C 258.305 247.854,258.103 247.893,258.350 247.941 M261.150 247.941 C 261.397 247.989,261.803 247.989,262.050 247.941 C 262.298 247.893,262.095 247.854,261.600 247.854 C 261.105 247.854,260.903 247.893,261.150 247.941 " stroke="none" fill="#5e858c" fill-rule="evenodd"></path><path id="path4" d="M215.192 71.850 C 216.020 72.733,216.200 72.892,216.200 72.742 C 216.200 72.710,215.773 72.282,215.250 71.792 L 214.300 70.900 215.192 71.850 M118.600 168.500 C 119.197 169.105,119.731 169.600,119.786 169.600 C 119.841 169.600,119.397 169.105,118.800 168.500 C 118.203 167.895,117.669 167.400,117.614 167.400 C 117.559 167.400,118.003 167.895,118.600 168.500 " stroke="none" fill="#7c9ca4" fill-rule="evenodd"></path></g></svg>